<svg xmlns="http://www.w3.org/2000/svg" xmlns:xlink="http://www.w3.org/1999/xlink" xmlns:serif="http://www.serif.com/" viewBox="0 0 134 167.5" version="1.1" xml:space="preserve" style="" x="0px" y="0px" fill-rule="evenodd" clip-rule="evenodd" stroke-linejoin="round" stroke-miterlimit="2"><rect x="0" y="0" width="133.333" height="133.333" style="" fill="none"/><path d="M9.496,93.103l0.009,-0.006c2.581,-1.736 6.09,-2.683 9.74,-2.683c3.65,-0 7.159,0.947 9.74,2.683l1.116,0.751c6.265,4.215 16.424,4.215 22.69,-0l1.249,-0.84c5.494,-3.697 14.403,-3.697 19.897,-0.001l0.353,0.237c3.451,2.322 8.124,3.655 13.005,3.655c4.881,-0 9.555,-1.333 13.006,-3.655l0.016,-0.01c2.83,-1.904 6.677,-2.946 10.68,-2.946c4.002,0 7.849,1.042 10.679,2.945c0.001,0.001 2.161,1.454 2.161,1.454c0.954,0.642 2.25,0.388 2.892,-0.566c0.641,-0.954 0.388,-2.249 -0.566,-2.891l-2.161,-1.454c-3.451,-2.321 -8.124,-3.654 -13.005,-3.654c-4.881,-0 -9.555,1.333 -13.006,3.654l-0.016,0.011c-2.83,1.904 -6.677,2.945 -10.68,2.945c-4.002,0 -7.849,-1.041 -10.68,-2.945l-0.352,-0.237c-6.779,-4.56 -17.77,-4.56 -24.549,0c-0.417,0.281 -0.834,0.561 -1.249,0.84c-4.981,3.351 -13.057,3.351 -18.038,0.001c-0.001,-0.001 -1.116,-0.751 -1.116,-0.751c-3.203,-2.154 -7.538,-3.393 -12.066,-3.393c-4.529,0 -8.864,1.239 -12.066,3.393c-0.003,0.002 -0.006,0.004 -0.008,0.006c-0.955,0.641 -1.208,1.937 -0.566,2.891c0.642,0.954 1.937,1.208 2.891,0.566Zm0,-16.82l0.009,-0.006c2.581,-1.736 6.09,-2.683 9.74,-2.683c3.65,-0 7.159,0.947 9.74,2.683l1.116,0.751c6.265,4.215 16.424,4.215 22.69,-0l1.249,-0.84c5.494,-3.697 14.403,-3.697 19.897,-0.001l0.353,0.237c3.451,2.322 8.124,3.655 13.005,3.655c4.881,-0 9.555,-1.333 13.006,-3.655l0.016,-0.01c2.83,-1.904 6.677,-2.946 10.68,-2.946c4.002,0 7.849,1.041 10.679,2.945c0.001,0.001 2.161,1.454 2.161,1.454c0.954,0.642 2.25,0.388 2.892,-0.566c0.641,-0.954 0.388,-2.25 -0.566,-2.891l-2.161,-1.454c-3.451,-2.321 -8.124,-3.654 -13.005,-3.654c-4.881,-0 -9.555,1.333 -13.006,3.654l-0.016,0.011c-2.83,1.904 -6.677,2.945 -10.68,2.945c-4.002,0 -7.849,-1.041 -10.68,-2.945l-0.352,-0.237c-6.779,-4.56 -17.77,-4.56 -24.549,0c-0.417,0.281 -0.834,0.561 -1.249,0.84c-4.981,3.351 -13.057,3.351 -18.038,0c-0.001,0 -1.116,-0.75 -1.116,-0.75c-3.203,-2.154 -7.538,-3.393 -12.066,-3.393c-4.529,0 -8.864,1.239 -12.066,3.393c-0.003,0.002 -0.006,0.004 -0.008,0.006c-0.955,0.641 -1.208,1.937 -0.566,2.891c0.642,0.954 1.937,1.208 2.891,0.566Zm0,-16.157l0.009,-0.006c2.581,-1.736 6.09,-2.683 9.74,-2.683c3.65,-0 7.159,0.947 9.74,2.683l1.116,0.75c6.265,4.215 16.424,4.215 22.69,0l1.249,-0.84c5.494,-3.696 14.403,-3.696 19.897,0l0.353,0.237c3.451,2.322 8.124,3.655 13.005,3.655c4.881,-0 9.555,-1.333 13.006,-3.655l0.016,-0.011c2.83,-1.904 6.677,-2.945 10.68,-2.945c4.002,0 7.849,1.041 10.679,2.945c0.001,0 2.161,1.454 2.161,1.454c0.954,0.642 2.25,0.388 2.892,-0.566c0.641,-0.954 0.388,-2.25 -0.566,-2.892l-2.161,-1.453c-3.451,-2.322 -8.124,-3.654 -13.005,-3.654c-4.881,-0 -9.555,1.332 -13.006,3.654l-0.016,0.011c-2.83,1.904 -6.677,2.945 -10.68,2.945c-4.002,0 -7.849,-1.041 -10.68,-2.945l-0.352,-0.237c-6.779,-4.56 -17.77,-4.56 -24.549,0c-0.417,0.28 -0.834,0.561 -1.249,0.84c-4.981,3.351 -13.057,3.351 -18.038,0c-0.001,0 -1.116,-0.75 -1.116,-0.75c-3.203,-2.154 -7.538,-3.393 -12.066,-3.393c-4.529,-0 -8.864,1.239 -12.066,3.393c-0.003,0.002 -0.006,0.004 -0.008,0.005c-0.955,0.642 -1.208,1.938 -0.566,2.892c0.642,0.954 1.937,1.207 2.891,0.566Zm0,-16.82l0.009,-0.006c2.581,-1.737 6.09,-2.684 9.74,-2.684c3.65,0 7.159,0.947 9.74,2.684l1.116,0.75c6.265,4.215 16.424,4.215 22.69,0l1.249,-0.84c5.494,-3.696 14.403,-3.696 19.897,0l0.353,0.237c3.451,2.322 8.124,3.655 13.005,3.655c4.881,-0 9.555,-1.333 13.006,-3.655l0.016,-0.011c2.83,-1.904 6.677,-2.945 10.68,-2.945c4.002,0 7.849,1.041 10.679,2.945c0.001,0 2.161,1.454 2.161,1.454c0.954,0.641 2.25,0.388 2.892,-0.566c0.641,-0.954 0.388,-2.25 -0.566,-2.892l-2.161,-1.453c-3.451,-2.322 -8.124,-3.655 -13.005,-3.655c-4.881,0.001 -9.555,1.333 -13.006,3.655l-0.016,0.011c-2.83,1.904 -6.677,2.945 -10.68,2.945c-4.002,0 -7.849,-1.041 -10.68,-2.945l-0.352,-0.237c-6.779,-4.56 -17.77,-4.56 -24.549,0c-0.417,0.28 -0.834,0.561 -1.249,0.84c-4.981,3.351 -13.057,3.351 -18.038,0c-0.001,0 -1.116,-0.75 -1.116,-0.75c-3.203,-2.155 -7.538,-3.393 -12.066,-3.393c-4.529,-0 -8.864,1.238 -12.066,3.393c-0.003,0.001 -0.006,0.003 -0.008,0.005c-0.955,0.642 -1.208,1.938 -0.566,2.892c0.642,0.954 1.937,1.207 2.891,0.566Z"/></svg>