<svg xmlns="http://www.w3.org/2000/svg" xmlns:xlink="http://www.w3.org/1999/xlink" version="1.1" x="0px" y="0px" viewBox="0 0 100 125" enable-background="new 0 0 100 100" xml:space="preserve"><path d="M50,34.825c0.857,0,1.552-0.694,1.552-1.552V22.845c0-0.857-0.694-1.552-1.552-1.552s-1.552,0.694-1.552,1.552v10.429  C48.448,34.131,49.143,34.825,50,34.825z"/><path d="M25.555,44.042c0.303,0.303,0.699,0.454,1.097,0.454s0.794-0.151,1.097-0.454c0.606-0.606,0.606-1.589,0-2.194l-7.373-7.374  c-0.606-0.606-1.588-0.606-2.194,0s-0.606,1.588,0,2.194L25.555,44.042z"/><path d="M93.448,64.741H74.066C73.261,52.155,62.79,42.15,50,42.15c-12.786,0-23.258,10.005-24.063,22.591H6.552  C5.694,64.741,5,65.436,5,66.293s0.694,1.552,1.552,1.552h35.689c0.857,0,1.552-0.694,1.552-1.552s-0.694-1.552-1.552-1.552H29.04  c0.8-10.877,9.883-19.487,20.96-19.487s20.163,8.61,20.964,19.487H57.759c-0.857,0-1.552,0.694-1.552,1.552s0.694,1.552,1.552,1.552  h35.689c0.857,0,1.552-0.694,1.552-1.552S94.306,64.741,93.448,64.741z"/><path d="M73.349,44.496c0.397,0,0.794-0.151,1.097-0.454l7.374-7.374c0.606-0.606,0.606-1.588,0-2.194s-1.588-0.606-2.194,0  l-7.373,7.374c-0.606,0.605-0.606,1.588,0,2.194C72.555,44.345,72.951,44.496,73.349,44.496z"/><path d="M57.68,63.111c0.606-0.606,0.606-1.589,0-2.194l-6.579-6.58c-0.146-0.146-0.318-0.261-0.507-0.34  c-0.382-0.154-0.806-0.154-1.188,0c-0.188,0.079-0.361,0.194-0.507,0.34l-6.579,6.58c-0.606,0.605-0.606,1.588,0,2.194  c0.606,0.605,1.588,0.605,2.194,0l3.934-3.935v17.979c0,0.857,0.694,1.552,1.552,1.552s1.552-0.694,1.552-1.552V59.177l3.934,3.935  c0.304,0.303,0.7,0.454,1.098,0.454C56.979,63.565,57.377,63.414,57.68,63.111z"/></svg>