<svg xmlns="http://www.w3.org/2000/svg" xmlns:xlink="http://www.w3.org/1999/xlink" version="1.1" x="0px" y="0px" viewBox="0 0 100 125" enable-background="new 0 0 100 100" xml:space="preserve"><path d="M50,33.273c0.857,0,1.552-0.694,1.552-1.552V21.293c0-0.857-0.694-1.552-1.552-1.552s-1.552,0.694-1.552,1.552v10.429  C48.448,32.58,49.143,33.273,50,33.273z"/><path d="M25.555,42.49c0.303,0.303,0.699,0.454,1.097,0.454s0.794-0.151,1.097-0.454c0.606-0.606,0.606-1.589,0-2.194l-7.373-7.374  c-0.606-0.606-1.588-0.606-2.194,0c-0.606,0.606-0.606,1.588,0,2.194L25.555,42.49z"/><path d="M93.448,63.189H74.066C73.261,50.604,62.79,40.599,50,40.599c-12.786,0-23.258,10.005-24.063,22.591H6.552  C5.694,63.189,5,63.884,5,64.741s0.694,1.552,1.552,1.552h35.689c0.857,0,1.552-0.694,1.552-1.552s-0.694-1.552-1.552-1.552H29.04  c0.8-10.877,9.883-19.487,20.96-19.487s20.163,8.61,20.964,19.487H57.759c-0.857,0-1.552,0.694-1.552,1.552s0.694,1.552,1.552,1.552  h35.689c0.857,0,1.552-0.694,1.552-1.552S94.306,63.189,93.448,63.189z"/><path d="M73.349,42.944c0.397,0,0.794-0.151,1.097-0.454l7.374-7.374c0.606-0.606,0.606-1.588,0-2.194  c-0.606-0.606-1.588-0.606-2.194,0l-7.373,7.374c-0.606,0.605-0.606,1.588,0,2.194C72.555,42.793,72.951,42.944,73.349,42.944z"/><path d="M55.485,71.027l-3.934,3.934V56.982c0-0.857-0.694-1.552-1.552-1.552s-1.552,0.694-1.552,1.552v17.979l-3.934-3.934  c-0.606-0.606-1.588-0.606-2.194,0c-0.606,0.605-0.606,1.588,0,2.194l6.579,6.579c0.146,0.146,0.318,0.261,0.507,0.34  c0.19,0.075,0.391,0.118,0.594,0.118s0.403-0.043,0.594-0.118c0.188-0.079,0.361-0.194,0.507-0.34l6.579-6.579  c0.606-0.606,0.606-1.589,0-2.194C57.073,70.421,56.092,70.421,55.485,71.027z"/></svg>