<svg width="79" height="55" viewBox="0 0 79 55" fill="none" xmlns="http://www.w3.org/2000/svg">
<path d="M65.2306 25.1308C65.2306 18.0912 58.9685 12.3634 51.2724 12.3634C46.4124 12.3634 42.1374 14.6543 39.6401 18.1114C37.5527 17.122 35.1864 16.5591 32.6781 16.5591C25.0775 16.5591 18.6783 21.7968 17.642 28.5341H14.9869C7.00934 28.5341 0.519653 34.4701 0.519653 41.7659C0.519653 49.064 7.01057 55 14.9869 55H43.4674C51.4449 55 57.9346 49.0629 57.9346 41.7659C57.9346 40.0268 57.5516 38.3525 56.8664 36.8103C61.7826 34.835 65.2306 30.3505 65.2306 25.1308ZM43.4661 51.6425H14.9856C9.03309 51.6425 4.18907 47.2118 4.18907 41.7659C4.18907 36.3212 9.03309 31.8916 14.9856 31.8916H19.3329C20.3325 31.8916 21.1474 31.1608 21.1682 30.2453C21.2906 24.5499 26.4527 19.9166 32.6769 19.9166C39.0283 19.9166 44.1966 24.6439 44.1978 30.4524C44.1978 31.2492 44.8096 31.9352 45.6624 32.0964C50.6459 33.0376 54.2627 37.1046 54.2627 41.7671C54.2639 47.2118 49.4199 51.6425 43.4661 51.6425ZM55.0507 33.8636C53.2643 31.6734 50.7499 29.9868 47.8012 29.1396C47.4268 25.5124 45.5156 22.2948 42.6782 20.0184C44.5147 17.4421 47.6653 15.7209 51.2699 15.7209C56.9435 15.7209 61.5575 19.9412 61.5575 25.1308C61.5599 29.0982 58.8571 32.4836 55.0507 33.8636Z" fill="black"/>
<path d="M51.2712 10.1015C52.2843 10.1015 53.1065 9.34946 53.1065 8.4228V1.67874C53.1065 0.752076 52.2843 0 51.2712 0C50.2581 0 49.4359 0.752076 49.4359 1.67874V8.4228C49.4359 9.34946 50.2581 10.1015 51.2712 10.1015Z" fill="black"/>
<path d="M64.1891 14.9945C64.6589 14.9945 65.1288 14.8311 65.4873 14.5032L70.6996 9.73557C71.4166 9.07974 71.4166 8.01766 70.6996 7.36184C69.9826 6.70601 68.8214 6.70601 68.1044 7.36184L62.8921 12.1295C62.1752 12.7853 62.1752 13.8474 62.8921 14.5032C63.2494 14.8311 63.7193 14.9945 64.1891 14.9945Z" fill="black"/>
<path d="M65.4873 35.7583C64.7703 35.1025 63.6091 35.1025 62.8921 35.7583C62.1752 36.4141 62.1752 37.4762 62.8921 38.132L68.1045 42.9008C68.4629 43.2287 68.9328 43.3921 69.4026 43.3921C69.8725 43.3921 70.3423 43.2287 70.7008 42.9008C71.4178 42.2449 71.4178 41.1829 70.7008 40.527L65.4873 35.7583Z" fill="black"/>
<path d="M37.0571 14.5032C37.4156 14.8311 37.8855 14.9945 38.3553 14.9945C38.8251 14.9945 39.295 14.8311 39.6535 14.5032C40.3705 13.8474 40.3705 12.7853 39.6535 12.1294L34.4412 7.36071C33.7242 6.70488 32.563 6.70488 31.846 7.36071C31.129 8.01653 31.129 9.07862 31.846 9.73444L37.0571 14.5032Z" fill="black"/>
<path d="M76.7746 23.452H69.4003C68.3872 23.452 67.5649 24.2041 67.5649 25.1307C67.5649 26.0574 68.3872 26.8095 69.4003 26.8095H76.7746C77.7877 26.8095 78.6099 26.0574 78.6099 25.1307C78.6099 24.2041 77.7877 23.452 76.7746 23.452Z" fill="black"/>
</svg>
