<svg xmlns="http://www.w3.org/2000/svg" xmlns:xlink="http://www.w3.org/1999/xlink" xmlns:serif="http://www.serif.com/" viewBox="0 0 134 167.5" version="1.1" xml:space="preserve" style="" x="0px" y="0px" fill-rule="evenodd" clip-rule="evenodd" stroke-linejoin="round" stroke-miterlimit="2"><rect x="0" y="0" width="133.333" height="133.333" style="" fill="none"/><path d="M81.133,94.342c-0,8.878 7.197,16.075 16.075,16.075c0.005,-0 0.01,-0 0.015,-0c4.342,-0 8.507,-1.726 11.578,-4.796c3.071,-3.071 4.797,-7.236 4.797,-11.579c-0,-0.1 -0,-0.2 -0,-0.3c-0,-4.418 -1.756,-8.656 -4.88,-11.78c-3.124,-3.124 -7.361,-4.879 -11.779,-4.879c-28.446,0 -88.606,0 -88.606,0c-1.149,0 -2.083,0.934 -2.083,2.084c0,1.149 0.934,2.083 2.083,2.083c0,0 60.16,0 88.606,0c3.313,-0 6.491,1.316 8.833,3.659c2.343,2.342 3.659,5.52 3.659,8.833c-0,0.1 -0,0.2 -0,0.3c-0,3.238 -1.286,6.343 -3.576,8.632c-2.289,2.29 -5.395,3.576 -8.632,3.576l-0.015,0c-6.577,-0 -11.908,-5.332 -11.909,-11.908c0,-3.11 -4.166,-3.275 -4.166,-0Zm12.35,-42.612l0.107,0.002l0.089,-0.01c0.399,-0.054 1.994,-0.377 1.994,-2.093l0,-1.72c0,-3.611 1.435,-7.075 3.988,-9.628c2.554,-2.554 6.017,-3.989 9.629,-3.989l0.01,0c3.611,0 7.075,1.435 9.628,3.989c2.554,2.553 3.989,6.017 3.989,9.628c-0,0.26 -0,0.52 -0,0.78c-0,7.628 -6.184,13.811 -13.811,13.811c-31.916,0 -100.773,0 -100.773,0c-1.149,-0 -2.083,0.934 -2.083,2.083c-0,1.15 0.934,2.084 2.083,2.084c0,-0 68.857,-0 100.773,-0c9.928,-0 17.977,-8.049 17.977,-17.978c0,-0.26 0,-0.52 0,-0.78c0,-4.716 -1.873,-9.24 -5.208,-12.575c-3.335,-3.335 -7.859,-5.208 -12.575,-5.208c-0.003,-0 -0.007,-0 -0.01,-0c-4.717,-0 -9.24,1.873 -12.575,5.208c-3.335,3.335 -5.209,7.859 -5.209,12.575l0.011,1.953l0.005,0.034c0.05,0.494 0.245,0.856 0.497,1.12c0.359,0.414 0.88,0.684 1.464,0.714Zm-29.915,-11.498l0.107,0.003l0.09,-0.01c0.398,-0.053 1.994,-0.374 1.994,-2.088c-0,0 -0,-1.226 -0,-1.226c-0,-2.422 0.962,-4.745 2.675,-6.458c1.713,-1.713 4.036,-2.675 6.458,-2.675l0.002,-0c2.423,-0 4.746,0.962 6.459,2.675c1.713,1.713 2.675,4.036 2.675,6.458l-0,0.35c-0,2.512 -0.998,4.922 -2.775,6.699c-1.777,1.777 -4.187,2.776 -6.7,2.776l-66.22,-0c-1.149,-0 -2.083,0.933 -2.083,2.083c-0,1.15 0.934,2.083 2.083,2.083c0,0 44.554,0 66.22,0c3.618,0 7.088,-1.437 9.646,-3.995c2.558,-2.559 3.995,-6.028 3.995,-9.646c0,-0.117 0,-0.233 0,-0.35c0,-3.527 -1.401,-6.91 -3.895,-9.404c-2.494,-2.495 -5.877,-3.896 -9.405,-3.896c-0,0 -0.001,0 -0.002,0c-3.527,0 -6.91,1.401 -9.405,3.896c-2.494,2.494 -3.895,5.877 -3.895,9.404l0.012,1.465c0.048,0.523 0.257,0.9 0.525,1.171c0.359,0.398 0.869,0.656 1.439,0.685Z"/></svg>